# xmcd CD database file
#
# Track frame offsets:
#	150
#	18360
#	42462
#
# Disc length: 807 seconds
#
# Revision: 1
# Processed by: cddbd v1.5.2PL0 Copyright (c) Steve Scherf et al.
# Submitted via: CDex 1.60beta1-cs1
#
DISCID=1d032503
DTITLE=椎名法子 - ドレミファソラシド
DYEAR=2000
DGENRE=JPop
TTITLE0=ドレミファソラシド
TTITLE1=言葉になんてできない
TTITLE2=ドレミファソラシド [Instrumental]
EXTD=YEAR: 2000
EXTT0=
EXTT1=
EXTT2=
PLAYORDER=
